<svg id="Calque_1" data-name="Calque 1" xmlns="http://www.w3.org/2000/svg" viewBox="0 0 81.6 90">
  <defs>
    <style>
      .cls-1 {
        fill: #fff;
      }
    </style>
  </defs>
  <title>noun_1194453_cc</title>
  <g>
    <path class="cls-1" d="M58.5,69.62h-17a3.84,3.84,0,0,0-3.83,3.83v2.23a3.84,3.84,0,0,0,3.83,3.83h17a3.84,3.84,0,0,0,3.83-3.83V73.46A3.84,3.84,0,0,0,58.5,69.62Zm.83,6.07a.85.85,0,0,1-.83.83h-7v-.81a1.5,1.5,0,0,0-3,0v.81h-7a.85.85,0,0,1-.83-.83V73.46a.85.85,0,0,1,.83-.83h2.26v1.46a1.5,1.5,0,0,0,3,0V72.62h6.47v1.46a1.5,1.5,0,0,0,3,0V72.62H58.5a.85.85,0,0,1,.83.83v2.23Z" transform="translate(-9.2 -5)"/>
    <path class="cls-1" d="M47.77,56a10.5,10.5,0,1,0-10.5,10.5A10.51,10.51,0,0,0,47.77,56Zm-10.5,7.5a7.5,7.5,0,1,1,7.5-7.5A7.51,7.51,0,0,1,37.27,63.51Z" transform="translate(-9.2 -5)"/>
    <path class="cls-1" d="M35,59.92A4.52,4.52,0,0,1,32.77,56a1,1,0,0,0-1-1h0a1,1,0,0,0-1,1A6.52,6.52,0,0,0,34,61.65a1,1,0,1,0,1-1.74Z" transform="translate(-9.2 -5)"/>
    <path class="cls-1" d="M43.77,55.92a1,1,0,0,0-1-.94,1,1,0,0,0-1,1,4.52,4.52,0,0,1-2.24,3.89,1,1,0,0,0,1,1.73A6.51,6.51,0,0,0,43.76,56S43.77,55.94,43.77,55.92Z" transform="translate(-9.2 -5)"/>
    <path class="cls-1" d="M34.48,52.27a1,1,0,0,0,.51-.14,4.58,4.58,0,0,1,4.49,0,1,1,0,0,0,1-1.74A6.62,6.62,0,0,0,34,50.4a1,1,0,0,0,.51,1.86Z" transform="translate(-9.2 -5)"/>
    <path class="cls-1" d="M40.22,56a3,3,0,1,0-3,3A3,3,0,0,0,40.22,56Z" transform="translate(-9.2 -5)"/>
    <path class="cls-1" d="M73.23,56a10.5,10.5,0,1,0-10.5,10.5A10.51,10.51,0,0,0,73.23,56Zm-10.5,7.5a7.5,7.5,0,1,1,7.5-7.5A7.51,7.51,0,0,1,62.73,63.51Z" transform="translate(-9.2 -5)"/>
    <path class="cls-1" d="M60.5,59.92A4.52,4.52,0,0,1,58.23,56a1,1,0,0,0-1-1h0a1,1,0,0,0-1,1,6.52,6.52,0,0,0,3.27,5.6,1,1,0,1,0,1-1.74Z" transform="translate(-9.2 -5)"/>
    <path class="cls-1" d="M69.23,55.92a1,1,0,0,0-1-.94,1,1,0,0,0-1,1A4.52,4.52,0,0,1,65,59.9a1,1,0,0,0,1,1.73A6.51,6.51,0,0,0,69.23,56S69.23,55.94,69.23,55.92Z" transform="translate(-9.2 -5)"/>
    <path class="cls-1" d="M59.95,52.27a1,1,0,0,0,.51-.14,4.58,4.58,0,0,1,4.49,0,1,1,0,1,0,1-1.74,6.62,6.62,0,0,0-6.49.06,1,1,0,0,0,.51,1.86Z" transform="translate(-9.2 -5)"/>
    <path class="cls-1" d="M65.69,56a3,3,0,1,0-3,3A3,3,0,0,0,65.69,56Z" transform="translate(-9.2 -5)"/>
    <path class="cls-1" d="M16.39,62.09a1.5,1.5,0,0,0-1.5,1.5V68.4a1.5,1.5,0,1,0,3,0V63.59A1.5,1.5,0,0,0,16.39,62.09Z" transform="translate(-9.2 -5)"/>
    <path class="cls-1" d="M80.59,54h-.82A28.12,28.12,0,0,0,61.32,34.77a11.25,11.25,0,0,0-9.21-10.39V17.47a6.4,6.4,0,1,0-4,.08v6.84A11.25,11.25,0,0,0,38.9,34.7,28.12,28.12,0,0,0,20.23,54h-.82A10.22,10.22,0,0,0,9.2,64.22v3.62A10.21,10.21,0,0,0,19.22,78V88.19A6.82,6.82,0,0,0,26,95H74a6.82,6.82,0,0,0,6.81-6.81V78a10.21,10.21,0,0,0,10-10.18V64.22A10.22,10.22,0,0,0,80.59,54ZM50,9a2.41,2.41,0,1,1-2.42,2.41A2.42,2.42,0,0,1,50,9Zm.11,19.19a7.25,7.25,0,0,1,7,5.59,28.09,28.09,0,0,0-4.38-.35H47.22a28,28,0,0,0-4.15.31A7.25,7.25,0,0,1,50.11,28.19ZM17.89,73.83v-.62a1.5,1.5,0,0,0-2.72-.87,6.16,6.16,0,0,1-2-4.51V64.22a6.19,6.19,0,0,1,2-4.55,1.5,1.5,0,0,0,2.69-.9V58.2a6.16,6.16,0,0,1,1.52-.2h0a28.2,28.2,0,0,0-.22,3.43V74A6.27,6.27,0,0,1,17.89,73.83ZM74,91H26a2.8,2.8,0,0,1-2.77-2.44H62.5a1.5,1.5,0,1,0,0-3H23.22V61.44a24,24,0,0,1,24-24h5.55a24,24,0,0,1,24,24V85.56H70.5a1.5,1.5,0,0,0,0,3h6.25A2.8,2.8,0,0,1,74,91ZM86.8,67.84a6.16,6.16,0,0,1-2,4.51,1.5,1.5,0,0,0-2.72.87v.62a6.21,6.21,0,0,1-1.33.19V61.44A28.21,28.21,0,0,0,80.56,58h0a6.2,6.2,0,0,1,1.52.2v.57a1.5,1.5,0,0,0,2.69.9,6.19,6.19,0,0,1,2,4.55v3.62Z" transform="translate(-9.2 -5)"/>
    <path class="cls-1" d="M83.61,62.09a1.5,1.5,0,0,0-1.5,1.5V68.4a1.5,1.5,0,0,0,3,0V63.59A1.5,1.5,0,0,0,83.61,62.09Z" transform="translate(-9.2 -5)"/>
  </g>
</svg>
